<mxfile host="app.diagrams.net" modified="2023-02-10T12:34:03.292Z" agent="5.0 (Macintosh; Intel Mac OS X 10_15_7) AppleWebKit/537.36 (KHTML, like Gecko) Chrome/107.0.0.0 Safari/537.36" etag="iDU4GonGEjgJaWUQERmw" version="20.8.19" type="github">
  <diagram name="第 1 页" id="C-6HlUorIaWCbYDD2bN9">
    <mxGraphModel dx="1026" dy="683" grid="1" gridSize="10" guides="1" tooltips="1" connect="1" arrows="1" fold="1" page="1" pageScale="1" pageWidth="827" pageHeight="1169" math="0" shadow="0">
      <root>
        <mxCell id="0" />
        <mxCell id="1" parent="0" />
        <mxCell id="ws7FJaTRihRgPFjayKAT-9" style="edgeStyle=orthogonalEdgeStyle;rounded=0;orthogonalLoop=1;jettySize=auto;html=1;entryX=0;entryY=0.5;entryDx=0;entryDy=0;fontSize=18;" edge="1" parent="1" source="ws7FJaTRihRgPFjayKAT-1" target="ws7FJaTRihRgPFjayKAT-8">
          <mxGeometry relative="1" as="geometry" />
        </mxCell>
        <mxCell id="ws7FJaTRihRgPFjayKAT-1" value="&lt;font style=&quot;font-size: 18px;&quot;&gt;已兑换列表&lt;/font&gt;" style="rounded=1;whiteSpace=wrap;html=1;" vertex="1" parent="1">
          <mxGeometry x="130" y="100" width="120" height="60" as="geometry" />
        </mxCell>
        <mxCell id="ws7FJaTRihRgPFjayKAT-10" style="edgeStyle=orthogonalEdgeStyle;rounded=0;orthogonalLoop=1;jettySize=auto;html=1;fontSize=18;" edge="1" parent="1" source="ws7FJaTRihRgPFjayKAT-2" target="ws7FJaTRihRgPFjayKAT-8">
          <mxGeometry relative="1" as="geometry" />
        </mxCell>
        <mxCell id="ws7FJaTRihRgPFjayKAT-2" value="&lt;span style=&quot;font-size: 18px;&quot;&gt;玩家抽奖信息&lt;/span&gt;" style="rounded=1;whiteSpace=wrap;html=1;" vertex="1" parent="1">
          <mxGeometry x="130" y="170" width="120" height="60" as="geometry" />
        </mxCell>
        <mxCell id="ws7FJaTRihRgPFjayKAT-11" style="edgeStyle=orthogonalEdgeStyle;rounded=0;orthogonalLoop=1;jettySize=auto;html=1;entryX=0;entryY=0.5;entryDx=0;entryDy=0;fontSize=18;" edge="1" parent="1" source="ws7FJaTRihRgPFjayKAT-3" target="ws7FJaTRihRgPFjayKAT-8">
          <mxGeometry relative="1" as="geometry" />
        </mxCell>
        <mxCell id="ws7FJaTRihRgPFjayKAT-3" value="&lt;font style=&quot;font-size: 18px;&quot;&gt;附加信息列表&lt;/font&gt;" style="rounded=1;whiteSpace=wrap;html=1;" vertex="1" parent="1">
          <mxGeometry x="130" y="240" width="120" height="60" as="geometry" />
        </mxCell>
        <mxCell id="ws7FJaTRihRgPFjayKAT-12" style="edgeStyle=orthogonalEdgeStyle;rounded=0;orthogonalLoop=1;jettySize=auto;html=1;entryX=0;entryY=0.5;entryDx=0;entryDy=0;fontSize=18;" edge="1" parent="1" source="ws7FJaTRihRgPFjayKAT-4" target="ws7FJaTRihRgPFjayKAT-8">
          <mxGeometry relative="1" as="geometry" />
        </mxCell>
        <mxCell id="ws7FJaTRihRgPFjayKAT-4" value="&lt;font style=&quot;font-size: 18px;&quot;&gt;...&lt;/font&gt;" style="rounded=1;whiteSpace=wrap;html=1;" vertex="1" parent="1">
          <mxGeometry x="130" y="310" width="120" height="60" as="geometry" />
        </mxCell>
        <mxCell id="ws7FJaTRihRgPFjayKAT-5" value="&lt;span style=&quot;font-size: 18px;&quot;&gt;玩家道具已拥有数量列表&lt;/span&gt;" style="rounded=1;whiteSpace=wrap;html=1;" vertex="1" parent="1">
          <mxGeometry x="130" y="380" width="120" height="60" as="geometry" />
        </mxCell>
        <mxCell id="ws7FJaTRihRgPFjayKAT-8" value="&lt;font style=&quot;font-size: 18px;&quot;&gt;附加信息列表&lt;/font&gt;" style="rounded=1;whiteSpace=wrap;html=1;" vertex="1" parent="1">
          <mxGeometry x="390" y="210" width="120" height="60" as="geometry" />
        </mxCell>
        <mxCell id="ws7FJaTRihRgPFjayKAT-13" value="合并" style="text;html=1;align=center;verticalAlign=middle;resizable=0;points=[];autosize=1;strokeColor=none;fillColor=none;fontSize=18;" vertex="1" parent="1">
          <mxGeometry x="320" y="200" width="60" height="40" as="geometry" />
        </mxCell>
        <mxCell id="ws7FJaTRihRgPFjayKAT-16" value="" style="endArrow=none;dashed=1;html=1;rounded=0;fontSize=18;exitX=1;exitY=0.5;exitDx=0;exitDy=0;" edge="1" parent="1" source="ws7FJaTRihRgPFjayKAT-5">
          <mxGeometry width="50" height="50" relative="1" as="geometry">
            <mxPoint x="390" y="380" as="sourcePoint" />
            <mxPoint x="320" y="410" as="targetPoint" />
          </mxGeometry>
        </mxCell>
        <mxCell id="ws7FJaTRihRgPFjayKAT-17" value="" style="endArrow=none;dashed=1;html=1;rounded=0;fontSize=18;" edge="1" parent="1">
          <mxGeometry width="50" height="50" relative="1" as="geometry">
            <mxPoint x="320" y="410" as="sourcePoint" />
            <mxPoint x="320" y="340" as="targetPoint" />
          </mxGeometry>
        </mxCell>
        <mxCell id="ws7FJaTRihRgPFjayKAT-19" value="&lt;span style=&quot;font-size: 14px;&quot;&gt;初始化&lt;br&gt;不再查询&lt;/span&gt;" style="rounded=0;whiteSpace=wrap;html=1;fontSize=18;" vertex="1" parent="1">
          <mxGeometry x="290" y="380" width="90" height="60" as="geometry" />
        </mxCell>
      </root>
    </mxGraphModel>
  </diagram>
</mxfile>
